<svg width="49" height="48" viewBox="0 0 49 48" fill="none" xmlns="http://www.w3.org/2000/svg">
<path d="M48.0112 23.7235C48.0112 29.9725 45.5288 35.9658 41.1099 40.3846C36.6911 44.8034 30.698 47.2856 24.4488 47.2856C18.1997 47.2856 12.2066 44.8035 7.78774 40.3846C3.36892 35.9658 0.886719 29.9726 0.886719 23.7235C0.886719 17.4744 3.36883 11.4812 7.78774 7.06242C12.2066 2.6436 18.1997 0.161133 24.4488 0.161133C24.8556 0.161133 25.185 0.490875 25.185 0.897659C25.185 1.3041 24.8556 1.63384 24.4488 1.63384C19.4479 1.63282 14.5952 3.32844 10.6822 6.44301C6.77013 9.55792 4.03012 13.9079 2.91082 18.7817C1.79117 23.6556 2.35817 28.765 4.51916 33.275C6.67975 37.7849 10.3066 41.4282 14.8067 43.6099C19.3067 45.791 24.4139 46.3813 29.2921 45.2839C34.1711 44.1865 38.5338 41.4664 41.6659 37.5683C44.7986 33.6703 46.5161 28.8248 46.5377 23.8245C46.5593 18.8235 44.8839 13.963 41.7853 10.0385L41.5915 11.979C41.5539 12.3553 41.2375 12.6419 40.8595 12.6423C40.8355 12.6423 40.8105 12.6423 40.7855 12.6385C40.3808 12.5978 40.0856 12.2369 40.126 11.8325L40.4941 8.15085H40.4944C40.5348 7.74646 40.8954 7.4513 41.2998 7.49137L44.9783 7.85912C45.3831 7.89987 45.6782 8.26077 45.6375 8.6655C45.5967 9.06989 45.2358 9.36505 44.8311 9.3243L42.9485 9.13632H42.9488C46.2326 13.2891 48.0165 18.4298 48.0107 23.7243L48.0112 23.7235ZM24.4488 6.06225C29.1327 6.06225 33.6248 7.92296 36.9365 11.2351C40.2483 14.5472 42.1094 19.0394 42.1094 23.7228C42.1094 28.4063 40.2487 32.8988 36.9365 36.2105C33.6244 39.5222 29.1323 41.3834 24.4488 41.3834C19.7654 41.3834 15.2728 39.5227 11.9611 36.2105C8.64942 32.8984 6.78827 28.4063 6.78827 23.7228C6.79341 19.0403 8.65617 14.5512 11.9669 11.2404C15.2777 7.92953 19.7667 6.06681 24.4494 6.06172L24.4488 6.06225ZM33.4898 13.6432L35.3553 11.773C32.565 9.21547 28.9638 7.72117 25.1826 7.55138V10.2023C25.1826 10.6091 24.8529 10.9385 24.4464 10.9385C24.0396 10.9385 23.7099 10.6091 23.7099 10.2023V7.55138C19.929 7.72121 16.3278 9.21547 13.5372 11.773L15.4075 13.6429C15.6951 13.9305 15.6951 14.3969 15.4075 14.6845C15.1199 14.9722 14.6535 14.9721 14.3659 14.6845L12.496 12.8143C9.93845 15.6046 8.44415 19.2057 8.27436 22.9869H10.9253C11.3317 22.9869 11.6615 23.3163 11.6615 23.7231C11.6615 24.1299 11.3317 24.4593 10.9253 24.4593H8.27436C8.44419 28.2406 9.93845 31.8417 12.496 34.632L14.3659 32.7665C14.5032 32.6248 14.6915 32.5436 14.8891 32.5422C15.0866 32.5405 15.2767 32.6183 15.416 32.758C15.5558 32.8977 15.6331 33.0877 15.6314 33.2853C15.6297 33.4825 15.5486 33.6712 15.4065 33.8081L13.5372 35.6736C16.3272 38.2311 19.928 39.7257 23.709 39.8952V37.2446C23.709 36.8378 24.0388 36.508 24.4452 36.508C24.852 36.508 25.1818 36.8378 25.1818 37.2446V39.8952C28.963 39.7253 32.5638 38.2311 35.3544 35.6736L33.489 33.8081H33.4893C33.2017 33.5205 33.2017 33.0541 33.4893 32.7665C33.7769 32.4789 34.2433 32.4789 34.531 32.7665L36.3964 34.6319H36.3961C38.9536 31.8416 40.4482 28.2405 40.6177 24.4593H37.9671C37.5603 24.4593 37.2309 24.1299 37.2309 23.7231C37.2309 23.3163 37.5603 22.9869 37.9671 22.9869H40.6177C40.4482 19.2056 38.9539 15.6048 36.3961 12.8151L34.5306 14.6843H34.531C34.242 14.9634 33.7828 14.9596 33.4986 14.6758C33.2144 14.3919 33.2103 13.9327 33.4894 13.6434L33.4898 13.6432ZM29.7439 27.977V27.9774C30.0315 28.265 30.0315 28.731 29.7439 29.0186C29.4559 29.3063 28.9899 29.3059 28.7023 29.0183L25.3815 25.6976C24.8408 25.9533 24.2194 25.9763 23.6612 25.7613C23.1034 25.5462 22.658 25.1117 22.4292 24.559C22.2005 24.0067 22.2083 23.3846 22.4508 22.8377C22.6932 22.2912 23.1493 21.868 23.7126 21.667V14.4746C23.7126 14.0678 24.042 13.7381 24.4488 13.7381C24.8556 13.7381 25.185 14.0678 25.185 14.4746V21.667C25.7657 21.8742 26.2314 22.3176 26.467 22.887C26.7029 23.4565 26.6871 24.0992 26.4231 24.6563L29.7439 27.977ZM24.4488 24.4351C24.7368 24.4351 24.9964 24.2615 25.1063 23.9955C25.2165 23.7298 25.1556 23.4236 24.9522 23.2199C24.7484 23.0165 24.4423 22.9556 24.1766 23.0658C23.9106 23.1757 23.737 23.4353 23.737 23.7232C23.7376 24.116 24.0561 24.4344 24.4488 24.4351Z" fill="#DC0000"/>
</svg>
