<svg width="59" height="59" viewBox="0 0 59 59" fill="none" xmlns="http://www.w3.org/2000/svg">
<path d="M14.0191 46.5692H14.0112C11.6094 46.5692 9.65527 44.6154 9.65527 42.2136V28.3081C9.65527 27.8067 10.0616 27.4004 10.563 27.4004H17.4669C17.9683 27.4004 18.3746 27.8067 18.3746 28.3081V42.2144C18.3746 44.6159 16.4209 46.5697 14.0191 46.5697L14.0191 46.5692ZM11.4708 29.2156V42.2141C11.4708 43.6144 12.6103 44.7539 14.0112 44.7539H14.0191C15.4197 44.7539 16.5592 43.6144 16.5592 42.2138V29.2161L11.4708 29.2156Z" fill="#DC0000"/>
<path d="M16.103 29.2159H11.9253C11.4239 29.2159 11.0176 28.8097 11.0176 28.3082V25.4941C11.0176 24.4929 11.8318 23.6787 12.833 23.6787H15.1953C16.1965 23.6787 17.0107 24.4929 17.0107 25.4941V28.3082C17.0107 28.8093 16.6045 29.2159 16.103 29.2159ZM12.833 27.4005H15.1953V25.4942H12.833V27.4005Z" fill="#DC0000"/>
<path d="M47.3677 29.2159H43.19C42.6886 29.2159 42.2822 28.8097 42.2822 28.3082V25.4941C42.2822 24.4929 43.0964 23.6787 44.0977 23.6787H46.4599C47.4612 23.6787 48.2754 24.4929 48.2754 25.4941V28.3082C48.2754 28.8093 47.8688 29.2159 47.3677 29.2159ZM44.0977 27.4005H46.4599V25.4942H44.0977V27.4005Z" fill="#DC0000"/>
<path d="M45.284 46.5692H45.2755C42.8737 46.5692 40.9199 44.6154 40.9199 42.2136V28.3081C40.9199 27.8067 41.3262 27.4004 41.8277 27.4004H48.7315C49.233 27.4004 49.6393 27.8067 49.6393 28.3081V42.2144C49.6393 44.6159 47.6855 46.5697 45.2841 46.5697L45.284 46.5692ZM42.7354 29.2156V42.2141C42.7354 43.6144 43.8749 44.7539 45.2755 44.7539H45.2841C46.6847 44.7539 47.8242 43.6144 47.8242 42.2138L47.8239 29.2161L42.7354 29.2156Z" fill="#DC0000"/>
<path d="M19.1215 29.2159H8.90776C8.40632 29.2159 8 28.8096 8 28.3081C8 27.8067 8.40628 27.4004 8.90776 27.4004H19.1215C19.6229 27.4004 20.0293 27.8067 20.0293 28.3081C20.0293 28.8093 19.623 29.2159 19.1215 29.2159Z" fill="#DC0000"/>
<path d="M50.3863 29.2159H40.1734C39.672 29.2159 39.2656 28.8096 39.2656 28.3081C39.2656 27.8067 39.6719 27.4004 40.1734 27.4004H50.3863C50.8877 27.4004 51.294 27.8067 51.294 28.3081C51.294 28.8093 50.8878 29.2159 50.3866 29.2159H50.3863Z" fill="#DC0000"/>
<path d="M29.9011 34.601C27.2306 34.601 25.0586 32.4289 25.0586 29.7585V9.88311C25.0586 7.08853 22.7849 4.81543 19.9906 4.81543C17.196 4.81543 14.9229 7.08853 14.9229 9.88311V24.5859C14.9229 25.0873 14.5167 25.4937 14.0152 25.4937C13.5137 25.4937 13.1074 25.0874 13.1074 24.5859V9.88311C13.1074 6.08798 16.1954 3 19.9905 3C23.786 3 26.874 6.08798 26.874 9.88311V29.7585C26.874 31.4278 28.2321 32.7856 29.901 32.7856C31.5706 32.7856 32.9287 31.4275 32.9287 29.7585V17.8683C32.9287 14.2128 35.9027 11.2388 39.5583 11.2388C43.2139 11.2388 46.1879 14.2128 46.1879 17.8683L46.1875 24.5862C46.1875 25.0876 45.7813 25.4939 45.2798 25.4939C44.7783 25.4939 44.372 25.0876 44.372 24.5862V17.8683C44.372 15.214 42.2122 13.0542 39.5579 13.0542C36.9036 13.0542 34.7437 15.214 34.7437 17.8683V29.7585C34.7437 32.429 32.5714 34.6013 29.9009 34.6013L29.9011 34.601Z" fill="#DC0000"/>
<path d="M17.4659 37.8936H10.5621C10.0606 37.8936 9.6543 37.4874 9.6543 36.9859C9.6543 36.4844 10.0606 36.0781 10.5621 36.0781H17.4659C17.9673 36.0781 18.3737 36.4844 18.3737 36.9859C18.3737 37.487 17.967 37.8936 17.4659 37.8936Z" fill="#DC0000"/>
<path d="M17.4659 33.9083H10.5621C10.0606 33.9083 9.6543 33.502 9.6543 33.0005C9.6543 32.4991 10.0606 32.0928 10.5621 32.0928H17.4659C17.9673 32.0928 18.3737 32.4991 18.3737 33.0005C18.3737 33.502 17.967 33.9083 17.4659 33.9083Z" fill="#DC0000"/>
<path d="M17.4659 41.877H10.5621C10.0606 41.877 9.6543 41.4708 9.6543 40.9693C9.6543 40.4678 10.0606 40.0615 10.5621 40.0615H17.4659C17.9673 40.0615 18.3737 40.4678 18.3737 40.9693C18.3737 41.4708 17.967 41.877 17.4659 41.877Z" fill="#DC0000"/>
<path d="M48.7315 37.8936H41.8277C41.3262 37.8936 40.9199 37.4874 40.9199 36.9859C40.9199 36.4844 41.3262 36.0781 41.8277 36.0781H48.7315C49.233 36.0781 49.6393 36.4844 49.6393 36.9859C49.6393 37.487 49.233 37.8936 48.7315 37.8936Z" fill="#DC0000"/>
<path d="M48.7315 33.9083H41.8277C41.3262 33.9083 40.9199 33.502 40.9199 33.0005C40.9199 32.4991 41.3262 32.0928 41.8277 32.0928H48.7315C49.233 32.0928 49.6393 32.4991 49.6393 33.0005C49.6393 33.502 49.233 33.9083 48.7315 33.9083Z" fill="#DC0000"/>
<path d="M48.7315 41.877H41.8277C41.3262 41.877 40.9199 41.4708 40.9199 40.9693C40.9199 40.4678 41.3262 40.0615 41.8277 40.0615H48.7315C49.233 40.0615 49.6393 40.4678 49.6393 40.9693C49.6393 41.4708 49.233 41.877 48.7315 41.877Z" fill="#DC0000"/>
</svg>
