<svg width="51" height="53" viewBox="0 0 51 53" fill="none" xmlns="http://www.w3.org/2000/svg">
<path d="M35.6987 29.1244H15.179C14.8535 29.1244 14.5977 28.8686 14.5977 28.543C14.5977 28.2175 14.8535 27.9617 15.179 27.9617H35.6875C36.013 27.9617 36.2688 28.2175 36.2688 28.543C36.2688 28.8686 36.013 29.1244 35.6992 29.1244H35.6987ZM35.6987 25.0553H15.179C14.8535 25.0553 14.5977 24.7995 14.5977 24.4739C14.5977 24.1484 14.8535 23.8926 15.179 23.8926H35.6875C36.013 23.8926 36.2688 24.1484 36.2688 24.4739C36.2688 24.7995 36.013 25.0553 35.6992 25.0553H35.6987Z" fill="#DC0000"/>
<path d="M14.0276 34.4147H12.7372C11.784 34.4147 11.0049 33.636 11.0049 32.6824V20.3466C11.0049 19.3934 11.7837 18.6143 12.7372 18.6143H14.0276C14.9808 18.6143 15.76 19.393 15.76 20.3466V32.6824C15.76 33.6359 14.9925 34.4147 14.0276 34.4147ZM12.7372 19.777C12.4234 19.777 12.1676 20.0328 12.1676 20.3467V32.6936C12.1676 33.0075 12.4234 33.2633 12.7372 33.2633H14.0276C14.3415 33.2633 14.5973 33.0075 14.5973 32.6936V20.3467C14.5973 20.0328 14.3415 19.777 14.0276 19.777H12.7372Z" fill="#DC0000"/>
<path d="M10.4349 32.1479H9.14448C8.19127 32.1479 7.41211 31.3691 7.41211 30.4155V22.6142C7.41211 21.661 8.19088 20.8818 9.14448 20.8818H10.4349C11.3881 20.8818 12.1672 21.6606 12.1672 22.6142C12.1672 22.9397 11.9114 23.1956 11.5859 23.1956C11.2603 23.1956 11.0045 22.9397 11.0045 22.6142C11.0045 22.3004 10.7487 22.0445 10.4348 22.0445L9.14447 22.0449C8.83062 22.0449 8.57479 22.3007 8.57479 22.6146V30.4159C8.57479 30.7297 8.83062 30.9855 9.14447 30.9855H10.4348C10.7487 30.9855 11.0045 30.7297 11.0045 30.4159C11.0045 30.0903 11.2603 29.8345 11.5859 29.8345C11.9114 29.8345 12.1672 30.0903 12.1672 30.4159C12.1672 31.3691 11.3884 32.1479 10.4349 32.1479Z" fill="#DC0000"/>
<path d="M6.84305 30.5789H5.55268C4.59947 30.5789 3.82031 29.8002 3.82031 28.8466V24.1845C3.82031 23.2313 4.59909 22.4521 5.55268 22.4521H6.84305C7.79626 22.4521 8.57542 23.2309 8.57542 24.1845C8.57542 24.51 8.3196 24.7659 7.99407 24.7659C7.66854 24.7659 7.41272 24.51 7.41272 24.1845C7.41272 23.8707 7.15689 23.6148 6.84304 23.6148H5.55267C5.23882 23.6148 4.983 23.8707 4.983 24.1845V28.8466C4.983 29.1604 5.23882 29.4162 5.55267 29.4162H6.84304C7.15689 29.4162 7.41272 29.1604 7.41272 28.8466C7.41272 28.521 7.66854 28.2652 7.99407 28.2652C8.3196 28.2652 8.57542 28.521 8.57542 28.8466C8.57542 29.8002 7.79628 30.5789 6.84305 30.5789Z" fill="#DC0000"/>
<path d="M4.4014 29.1244H1.06475C0.739222 29.1244 0.483398 28.8686 0.483398 28.543V24.4739C0.483398 24.1484 0.739222 23.8926 1.06475 23.8926H4.4014C4.72692 23.8926 4.98275 24.1484 4.98275 24.4739C4.98275 24.7995 4.72692 25.0553 4.4014 25.0553H1.64613V27.9616H4.4014C4.72692 27.9616 4.98275 28.2174 4.98275 28.543C4.98275 28.8685 4.72692 29.1244 4.4014 29.1244Z" fill="#DC0000"/>
<path d="M35.6987 11.4525H15.179C14.8535 11.4525 14.5977 11.1967 14.5977 10.8711C14.5977 10.5456 14.8535 10.2898 15.179 10.2898H35.6875C36.013 10.2898 36.2688 10.5456 36.2688 10.8711C36.2688 11.1967 36.013 11.4525 35.6992 11.4525H35.6987ZM35.6987 7.38341H15.179C14.8535 7.38341 14.5977 7.12758 14.5977 6.80205C14.5977 6.47653 14.8535 6.2207 15.179 6.2207H35.6875C36.013 6.2207 36.2688 6.47653 36.2688 6.80205C36.2688 7.12758 36.013 7.38341 35.6992 7.38341H35.6987Z" fill="#DC0000"/>
<path d="M13.6324 16.7433H11.9C10.7257 16.7433 9.77246 15.7901 9.77246 14.6158V3.05919C9.77246 1.88485 10.7257 0.931641 11.9 0.931641H13.6324C14.8067 0.931641 15.7599 1.88485 15.7599 3.05919V14.6036C15.7599 15.7893 14.8067 16.7426 13.6324 16.7426V16.7433ZM11.9 2.0944C11.3654 2.0944 10.9351 2.52466 10.9351 3.05928V14.6037C10.9351 15.1384 11.3654 15.5686 11.9 15.5686H13.6324C14.167 15.5686 14.5973 15.1383 14.5973 14.6037V3.05928C14.5973 2.52465 14.167 2.0944 13.6324 2.0944H11.9Z" fill="#DC0000"/>
<path d="M8.80718 13.0461H7.07482C5.90047 13.0461 4.94727 12.0929 4.94727 10.9186V6.75646C4.94727 5.58211 5.90047 4.62891 7.07482 4.62891H8.80718C9.98152 4.62891 10.9347 5.58211 10.9347 6.75646C10.9347 7.08198 10.6789 7.33781 10.3534 7.33781C10.0279 7.33781 9.77203 7.08198 9.77203 6.75646C9.77203 6.22182 9.34176 5.79157 8.80714 5.79157L7.07478 5.79121C6.54014 5.79121 6.10989 6.22147 6.10989 6.75609V10.9066C6.10989 11.4412 6.54016 11.8714 7.07478 11.8714H8.80714C9.34178 11.8714 9.77203 11.4412 9.77203 10.9066C9.77203 10.581 10.0279 10.3252 10.3534 10.3252C10.6789 10.3252 10.9347 10.581 10.9347 10.9066C10.9347 12.0926 9.98152 13.0461 8.80718 13.0461Z" fill="#DC0000"/>
<path d="M38.9781 16.7433H37.2457C36.0714 16.7433 35.1182 15.7901 35.1182 14.6158V3.05919C35.1182 1.88485 36.0714 0.931641 37.2457 0.931641H38.9781C40.1524 0.931641 41.1056 1.88485 41.1056 3.05919V14.6036C41.1056 15.7893 40.1524 16.7426 38.9781 16.7426V16.7433ZM37.2457 2.0944C36.7111 2.0944 36.2808 2.52466 36.2808 3.05928V14.6037C36.2808 15.1384 36.7111 15.5686 37.2457 15.5686H38.9781C39.5127 15.5686 39.943 15.1383 39.943 14.6037V3.05928C39.943 2.52465 39.5127 2.0944 38.9781 2.0944H37.2457Z" fill="#DC0000"/>
<path d="M43.814 13.0461H42.0817C40.9073 13.0461 39.9541 12.0929 39.9541 10.9186C39.9541 10.5931 40.2099 10.3372 40.5355 10.3372C40.861 10.3372 41.1168 10.5931 41.1168 10.9186C41.1168 11.4532 41.5471 11.8835 42.0817 11.8835H43.8141C44.3487 11.8835 44.7789 11.4532 44.7789 10.9186V6.75646C44.7789 6.22182 44.3487 5.79157 43.8141 5.79157H42.0817C41.5471 5.79157 41.1168 6.22184 41.1168 6.75646C41.1168 7.08198 40.861 7.33781 40.5355 7.33781C40.2099 7.33781 39.9541 7.08198 39.9541 6.75646C39.9541 5.58211 40.9073 4.62891 42.0817 4.62891H43.814C44.9884 4.62891 45.9416 5.58211 45.9416 6.75646V10.9069C45.9416 12.0926 44.988 13.0461 43.814 13.0461Z" fill="#DC0000"/>
<path d="M35.6987 46.8083H15.179C14.8535 46.8083 14.5977 46.5525 14.5977 46.227C14.5977 45.9015 14.8535 45.6456 15.179 45.6456H35.6875C36.013 45.6456 36.2688 45.9015 36.2688 46.227C36.2688 46.5525 36.013 46.8083 35.6992 46.8083H35.6987ZM35.6987 42.7389H15.179C14.8535 42.7389 14.5977 42.483 14.5977 42.1575C14.5977 41.832 14.8535 41.5762 15.179 41.5762H35.6875C36.013 41.5762 36.2688 41.832 36.2688 42.1575C36.2688 42.4834 36.013 42.7389 35.6992 42.7389H35.6987Z" fill="#DC0000"/>
<path d="M13.6324 52.0974H11.9C10.7257 52.0974 9.77246 51.1442 9.77246 49.9698V38.4254C9.77246 37.2511 10.7257 36.2979 11.9 36.2979H13.6324C14.8067 36.2979 15.7599 37.2511 15.7599 38.4254V49.9698C15.7599 51.1442 14.8067 52.0974 13.6324 52.0974ZM11.9 37.4485C11.3654 37.4485 10.9351 37.8787 10.9351 38.4134V49.9578C10.9351 50.4924 11.3654 50.9227 11.9 50.9227H13.6324C14.167 50.9227 14.5973 50.4924 14.5973 49.9578V38.4134C14.5973 37.8787 14.167 37.4485 13.6324 37.4485H11.9Z" fill="#DC0000"/>
<path d="M8.80718 48.4007H7.07482C5.90047 48.4007 4.94727 47.4475 4.94727 46.2731V42.1227C4.94727 40.9483 5.90047 39.9951 7.07482 39.9951H8.80718C9.98152 39.9951 10.9347 40.9483 10.9347 42.1227C10.9347 42.4482 10.6789 42.704 10.3534 42.704C10.0279 42.704 9.77203 42.4482 9.77203 42.1227C9.77203 41.588 9.34176 41.1578 8.80714 41.1578H7.07478C6.54014 41.1578 6.10989 41.588 6.10989 42.1227V46.2731C6.10989 46.8078 6.54016 47.238 7.07478 47.238H8.80714C9.34178 47.238 9.77203 46.8078 9.77203 46.2731C9.77203 45.9476 10.0279 45.6918 10.3534 45.6918C10.6789 45.6918 10.9347 45.9476 10.9347 46.2731C10.9347 47.4475 9.98152 48.4007 8.80718 48.4007Z" fill="#DC0000"/>
<path d="M38.9781 52.0974H37.2457C36.0714 52.0974 35.1182 51.1442 35.1182 49.9698V38.4254C35.1182 37.2511 36.0714 36.2979 37.2457 36.2979H38.9781C40.1524 36.2979 41.1056 37.2511 41.1056 38.4254V49.9698C41.1056 51.1442 40.1524 52.0974 38.9781 52.0974ZM37.2457 37.4485C36.7111 37.4485 36.2808 37.8787 36.2808 38.4134V49.9578C36.2808 50.4924 36.7111 50.9227 37.2457 50.9227H38.9781C39.5127 50.9227 39.943 50.4924 39.943 49.9578V38.4134C39.943 37.8787 39.5127 37.4485 38.9781 37.4485H37.2457Z" fill="#DC0000"/>
<path d="M43.814 48.4007H42.0817C40.9073 48.4007 39.9541 47.4475 39.9541 46.2731C39.9541 45.9476 40.2099 45.6918 40.5355 45.6918C40.861 45.6918 41.1168 45.9476 41.1168 46.2731C41.1168 46.8078 41.5471 47.238 42.0817 47.238H43.8141C44.3487 47.238 44.7789 46.8078 44.7789 46.2731V42.1227C44.7789 41.588 44.3487 41.1578 43.8141 41.1578H42.0817C41.5471 41.1578 41.1168 41.588 41.1168 42.1227C41.1168 42.4482 40.861 42.704 40.5355 42.704C40.2099 42.704 39.9541 42.4482 39.9541 42.1227C39.9541 40.9483 40.9073 39.9951 42.0817 39.9951H43.814C44.9884 39.9951 45.9416 40.9483 45.9416 42.1227V46.2731C45.9416 47.4475 44.988 48.4007 43.814 48.4007Z" fill="#DC0000"/>
<path d="M38.1409 34.4147H36.8505C35.8973 34.4147 35.1182 33.636 35.1182 32.6824V20.3466C35.1182 19.3934 35.8969 18.6143 36.8505 18.6143H38.1409C39.0941 18.6143 39.8733 19.393 39.8733 20.3466V32.6824C39.8733 33.6359 39.0945 34.4147 38.1409 34.4147ZM36.8505 19.777C36.5367 19.777 36.2809 20.0328 36.2809 20.3467V32.6936C36.2809 33.0075 36.5367 33.2633 36.8505 33.2633H38.1409C38.4548 33.2633 38.7106 33.0075 38.7106 32.6936V20.3467C38.7106 20.0328 38.4548 19.777 38.1409 19.777H36.8505Z" fill="#DC0000"/>
<path d="M41.7327 32.1479H40.4423C39.4891 32.1479 38.71 31.3691 38.71 30.4155C38.71 30.09 38.9658 29.8341 39.2913 29.8341C39.6168 29.8341 39.8727 30.09 39.8727 30.4155C39.8727 30.7294 40.1285 30.9852 40.4423 30.9852H41.7327C42.0466 30.9852 42.3024 30.7294 42.3024 30.4155V22.6142C42.3024 22.3004 42.0466 22.0445 41.7327 22.0445H40.4423C40.1285 22.0445 39.8727 22.3004 39.8727 22.6142C39.8727 22.9397 39.6168 23.1956 39.2913 23.1956C38.9658 23.1956 38.71 22.9397 38.71 22.6142C38.71 21.661 39.4887 20.8818 40.4423 20.8818H41.7327C42.6859 20.8818 43.4651 21.6606 43.4651 22.6142V30.4155C43.4651 31.3691 42.6863 32.1479 41.7327 32.1479Z" fill="#DC0000"/>
<path d="M45.3245 30.5789H44.0341C43.0809 30.5789 42.3018 29.8002 42.3018 28.8466C42.3018 28.521 42.5576 28.2652 42.8831 28.2652C43.2086 28.2652 43.4645 28.521 43.4645 28.8466C43.4645 29.1604 43.7203 29.4162 44.0341 29.4162H45.3245C45.6384 29.4162 45.8942 29.1604 45.8942 28.8466V24.1845C45.8942 23.8707 45.6384 23.6148 45.3245 23.6148H44.0341C43.7203 23.6148 43.4645 23.8707 43.4645 24.1845C43.4645 24.51 43.2086 24.7659 42.8831 24.7659C42.5576 24.7659 42.3018 24.51 42.3018 24.1845C42.3018 23.2313 43.0805 22.4521 44.0341 22.4521H45.3245C46.2777 22.4521 47.0569 23.2309 47.0569 24.1845V28.8466C47.0569 29.8002 46.2781 30.5789 45.3245 30.5789Z" fill="#DC0000"/>
<path d="M49.8125 29.1243H46.4759C46.1504 29.1243 45.8945 28.8685 45.8945 28.543C45.8945 28.2174 46.1504 27.9616 46.4759 27.9616H49.2312V25.0553H46.4759C46.1504 25.0553 45.8945 24.7995 45.8945 24.4739C45.8945 24.1484 46.1504 23.8926 46.4759 23.8926H49.8125C50.1381 23.8926 50.3939 24.1484 50.3939 24.4739V28.543C50.3939 28.8685 50.1381 29.1243 49.8125 29.1243Z" fill="#DC0000"/>
</svg>
