<svg width="21" height="21" viewBox="0 0 21 21" fill="none" xmlns="http://www.w3.org/2000/svg">
<path d="M5.19342 7.07282C4.95467 5.50032 6.06342 4.08782 7.75717 3.57032C8.05774 3.47842 8.38204 3.50458 8.66399 3.64347C8.94595 3.78235 9.16434 4.02351 9.27467 4.31782L9.81842 5.76782C9.90596 6.00108 9.92178 6.25519 9.86387 6.49751C9.80597 6.73984 9.67696 6.95933 9.49342 7.12782L7.87592 8.60907C7.79619 8.68223 7.73678 8.77481 7.70348 8.87777C7.67019 8.98074 7.66413 9.09057 7.68592 9.19657L7.70092 9.26157L7.73967 9.42407C7.94083 10.2136 8.24733 10.9725 8.65092 11.6803C9.09056 12.4324 9.63615 13.1174 10.2709 13.7141L10.3209 13.7591C10.4017 13.8307 10.4996 13.8803 10.6052 13.9028C10.7108 13.9254 10.8204 13.9202 10.9234 13.8878L13.0147 13.2291C13.2523 13.1544 13.5069 13.1525 13.7456 13.2236C13.9844 13.2946 14.1965 13.4354 14.3547 13.6278L15.3447 14.8291C15.7572 15.3291 15.7072 16.0641 15.2334 16.5053C13.9372 17.7141 12.1547 17.9616 10.9147 16.9653C9.39471 15.7393 8.11336 14.2439 7.13467 12.5541C6.14804 10.8655 5.49025 9.00585 5.19342 7.07282ZM8.99717 9.27907L10.3372 8.04907C10.7045 7.71224 10.9627 7.27332 11.0788 6.78866C11.1948 6.304 11.1633 5.79572 10.9884 5.32907L10.4459 3.87907C10.2239 3.28688 9.78434 2.80164 9.21694 2.52224C8.64954 2.24284 7.99696 2.1903 7.39217 2.37532C5.28842 3.01907 3.59967 4.90532 3.95717 7.26157C4.20717 8.90657 4.78342 10.9991 6.05467 13.1841C7.11056 15.0062 8.49274 16.6185 10.1322 17.9403C11.9922 19.4341 14.4747 18.9241 16.0872 17.4216C16.5486 16.992 16.8286 16.4025 16.8702 15.7734C16.9118 15.1444 16.7118 14.5232 16.3109 14.0366L15.3209 12.8341C15.0042 12.4497 14.5799 12.1686 14.1024 12.027C13.6249 11.8853 13.116 11.8895 12.6409 12.0391L10.9047 12.5853C10.4564 12.1231 10.0637 11.61 9.73467 11.0566C9.41683 10.497 9.16913 9.90044 8.99717 9.28032V9.27907Z" fill="white"/>
</svg>
