<svg width="41" height="41" viewBox="0 0 41 41" fill="none" xmlns="http://www.w3.org/2000/svg">
<path d="M20.5508 16.75C19.8091 16.75 19.0841 16.9699 18.4674 17.382C17.8507 17.794 17.3701 18.3797 17.0862 19.0649C16.8024 19.7502 16.7281 20.5042 16.8728 21.2316C17.0175 21.959 17.3747 22.6272 17.8991 23.1517C18.4236 23.6761 19.0918 24.0333 19.8192 24.1779C20.5466 24.3226 21.3006 24.2484 21.9858 23.9645C22.6711 23.6807 23.2567 23.2001 23.6688 22.5834C24.0808 21.9667 24.3008 21.2417 24.3008 20.5C24.2997 19.5058 23.9043 18.5525 23.2013 17.8495C22.4983 17.1465 21.545 16.751 20.5508 16.75ZM20.5508 23C20.0563 23 19.573 22.8534 19.1619 22.5787C18.7507 22.304 18.4303 21.9135 18.2411 21.4567C18.0519 20.9999 18.0024 20.4972 18.0988 20.0123C18.1953 19.5273 18.4334 19.0819 18.783 18.7322C19.1326 18.3826 19.5781 18.1445 20.0631 18.048C20.548 17.9516 21.0507 18.0011 21.5075 18.1903C21.9643 18.3795 22.3548 18.7 22.6295 19.1111C22.9042 19.5222 23.0508 20.0055 23.0508 20.5C23.0508 21.163 22.7874 21.7989 22.3185 22.2678C21.8497 22.7366 21.2138 23 20.5508 23ZM24.3008 12.375H16.8008C15.6408 12.3762 14.5288 12.8376 13.7086 13.6578C12.8884 14.478 12.427 15.5901 12.4258 16.75V24.25C12.427 25.4099 12.8884 26.522 13.7086 27.3422C14.5288 28.1624 15.6408 28.6238 16.8008 28.625H24.3008C25.4607 28.6238 26.5728 28.1624 27.393 27.3422C28.2132 26.522 28.6745 25.4099 28.6758 24.25V16.75C28.6745 15.5901 28.2132 14.478 27.393 13.6578C26.5728 12.8376 25.4607 12.3762 24.3008 12.375ZM27.4258 24.25C27.4258 25.0788 27.0965 25.8737 26.5105 26.4597C25.9244 27.0458 25.1296 27.375 24.3008 27.375H16.8008C15.972 27.375 15.1771 27.0458 14.5911 26.4597C14.005 25.8737 13.6758 25.0788 13.6758 24.25V16.75C13.6758 15.9212 14.005 15.1263 14.5911 14.5403C15.1771 13.9542 15.972 13.625 16.8008 13.625H24.3008C25.1296 13.625 25.9244 13.9542 26.5105 14.5403C27.0965 15.1263 27.4258 15.9212 27.4258 16.75V24.25ZM25.5508 16.4375C25.5508 16.6229 25.4958 16.8042 25.3928 16.9583C25.2898 17.1125 25.1434 17.2327 24.972 17.3036C24.8007 17.3746 24.6122 17.3932 24.4304 17.357C24.2485 17.3208 24.0815 17.2315 23.9504 17.1004C23.8193 16.9693 23.73 16.8023 23.6938 16.6204C23.6576 16.4385 23.6762 16.25 23.7471 16.0787C23.8181 15.9074 23.9383 15.761 24.0924 15.658C24.2466 15.555 24.4279 15.5 24.6133 15.5C24.8619 15.5 25.1004 15.5988 25.2762 15.7746C25.452 15.9504 25.5508 16.1889 25.5508 16.4375Z" fill="white"/>
<circle cx="20.5508" cy="20.5" r="19.5" stroke="white"/>
<circle cx="20.5508" cy="20.5" r="19.5" stroke="white"/>
<circle cx="20.5508" cy="20.5" r="19.5" stroke="white"/>
</svg>
