<svg width="41" height="41" viewBox="0 0 41 41" fill="none" xmlns="http://www.w3.org/2000/svg">
<path d="M29.878 15.8863C29.8307 15.772 29.7506 15.6744 29.6479 15.6057C29.5451 15.537 29.4243 15.5003 29.3007 15.5003H26.9233C26.5909 14.9348 26.1179 14.465 25.5502 14.1364C24.9824 13.8079 24.3394 13.6318 23.6835 13.6253C23.1948 13.6189 22.7098 13.7103 22.257 13.8941C21.8042 14.0779 21.3927 14.3504 21.0468 14.6956C20.6907 15.045 20.4081 15.4621 20.2156 15.9223C20.0231 16.3824 19.9245 16.8765 19.9257 17.3753V17.8511C16.7803 17.0214 14.2077 14.4628 14.1803 14.4355C14.0965 14.3509 13.9902 14.292 13.874 14.2658C13.7578 14.2396 13.6366 14.2471 13.5245 14.2875C13.4125 14.3279 13.3143 14.3994 13.2416 14.4938C13.1688 14.5881 13.1245 14.7012 13.1139 14.8198C12.7772 18.5534 13.8616 21.0519 14.8327 22.4902C15.3062 23.2012 15.8822 23.8383 16.5421 24.3808C15.3522 25.7503 13.4788 26.4698 13.4585 26.4777C13.3703 26.5107 13.2907 26.5632 13.2257 26.6313C13.1606 26.6995 13.1118 26.7814 13.0829 26.871C13.054 26.9606 13.0457 27.0556 13.0586 27.1489C13.0716 27.2422 13.1054 27.3313 13.1577 27.4097C13.2163 27.4972 13.4507 27.8042 14.0233 28.0909C14.7311 28.4456 15.6663 28.6253 16.8007 28.6253C22.3218 28.6253 26.935 24.3738 27.4061 18.9034L29.7428 16.5675C29.8302 16.48 29.8897 16.3686 29.9138 16.2474C29.9378 16.1261 29.9254 16.0004 29.878 15.8863ZM26.3624 18.1839C26.2552 18.2913 26.1908 18.4341 26.1811 18.5855C25.8632 23.5144 21.7444 27.3753 16.8007 27.3753C15.9757 27.3753 15.3944 27.2659 14.9866 27.1347C15.8858 26.6464 17.1397 25.8066 17.946 24.5972C17.9933 24.5261 18.0255 24.446 18.0407 24.362C18.0559 24.2779 18.0537 24.1916 18.0342 24.1085C18.0147 24.0253 17.9784 23.947 17.9275 23.8784C17.8766 23.8098 17.8121 23.7524 17.7382 23.7097C17.7014 23.6886 14.3077 21.6519 14.3007 16.2097C15.5507 17.2253 17.8358 18.8011 20.4468 19.2402C20.5362 19.2552 20.6279 19.2507 20.7155 19.2267C20.803 19.2028 20.8843 19.1601 20.9536 19.1016C21.023 19.0431 21.0788 18.9702 21.1171 18.8879C21.1555 18.8057 21.1754 18.7161 21.1757 18.6253V17.3753C21.175 17.0419 21.2409 16.7117 21.3698 16.4042C21.4986 16.0967 21.6876 15.8181 21.9257 15.5847C22.1539 15.356 22.4257 15.1754 22.7249 15.0536C23.0242 14.9317 23.3448 14.8711 23.6678 14.8753C24.6569 14.8878 25.5811 15.4909 25.9678 16.3761C26.0166 16.4874 26.0967 16.582 26.1984 16.6485C26.3001 16.715 26.419 16.7503 26.5405 16.7503H27.7905L26.3624 18.1839Z" fill="white"/>
<circle cx="20.5508" cy="20.5" r="19.5" stroke="white"/>
<circle cx="20.5508" cy="20.5" r="19.5" stroke="white"/>
<circle cx="20.5508" cy="20.5" r="19.5" stroke="white"/>
</svg>
