<svg width="36" height="26" viewBox="0 0 36 26" fill="none" xmlns="http://www.w3.org/2000/svg">
<path d="M34.6007 5.93123H32.8483V5.06235C32.8483 3.94265 31.9329 3.03495 30.8038 3.03495C30.5 3.03662 30.2006 3.10613 29.9276 3.23827V2.4557C29.9276 1.17605 28.8814 0.138672 27.591 0.138672C26.3005 0.138672 25.2544 1.17605 25.2544 2.4557V5.93123H22.9178V5.35198C22.9221 4.39642 22.1443 3.61834 21.1807 3.61406C20.743 3.61211 20.3205 3.77343 19.9971 4.06603C19.3367 3.4636 18.3209 3.4636 17.6605 4.06603C17.0002 3.4636 15.9843 3.4636 15.324 4.06603C14.612 3.42204 13.5084 3.47229 12.859 4.17826C12.564 4.49895 12.4013 4.9179 12.4032 5.35198V5.93123H10.0667V2.4557C10.0667 1.17605 9.02054 0.138672 7.7301 0.138672C6.43965 0.138672 5.39352 1.17605 5.39352 2.4557V3.23827C5.12051 3.10613 4.82106 3.03662 4.51731 3.03495C3.38816 3.03495 2.4728 3.94265 2.4728 5.06235V5.93123H0.720374C0.397781 5.93123 0.13623 6.1906 0.13623 6.51049V9.98603C0.13623 10.3059 0.397781 10.5653 0.720374 10.5653H2.4728V11.4342C2.4728 12.5539 3.38816 13.4616 4.51731 13.4616C4.82106 13.4599 5.12051 13.3904 5.39352 13.2582V14.0408C5.39352 15.3205 6.43965 16.3578 7.7301 16.3578C9.02054 16.3578 10.0667 15.3205 10.0667 14.0408V10.5653H11.235V12.5017C11.2331 13.2702 11.5412 14.0075 12.0907 14.5494L13.5715 16.0184L13.2052 25.2815H16.1754L14.7398 15.7786C14.7398 15.6249 14.6782 15.4777 14.5687 15.3691L12.9167 13.7303C12.5889 13.4039 12.4044 12.9624 12.4032 12.5017V8.82752H15.8246C16.0457 8.82455 16.2553 8.92527 16.39 9.09919C16.3941 9.10498 16.3988 9.11077 16.4029 9.11714C16.4279 9.15668 16.4476 9.19933 16.4613 9.244C16.4723 9.2797 16.4798 9.31634 16.4835 9.35348C16.4876 9.38983 16.4876 9.42661 16.4835 9.46296C16.4822 9.48244 16.4796 9.50177 16.4759 9.52089C16.4627 9.58193 16.44 9.6405 16.4087 9.69466C16.3069 9.87401 16.1157 9.98523 15.9081 9.98603H14.1557C13.8331 9.98603 13.5715 10.2454 13.5715 10.5653V11.7238C13.5715 11.9732 13.7325 12.1947 13.9711 12.2735L15.2562 12.6993C16.2995 13.0428 17.0764 14.6085 17.0764 15.7786H18.2447C18.2447 14.1851 17.2446 12.1339 15.6283 11.5998L14.7398 11.3062V11.1445H15.9081C16.3997 11.1398 16.8665 10.9295 17.1932 10.5653H22.3337V12.6894C22.333 13.0653 22.2101 13.4309 21.9832 13.7321L20.6981 15.431C20.6222 15.5313 20.5813 15.6533 20.5813 15.7786L19.6052 25.2815H22.3337L21.7495 15.9715L22.9178 14.4272C23.2959 13.9253 23.5008 13.3159 23.502 12.6894V10.5653H25.2544V14.0408C25.2544 15.3205 26.3005 16.3578 27.591 16.3578C28.8814 16.3578 29.9276 15.3205 29.9276 14.0408V13.2582C30.2006 13.3904 30.5 13.4599 30.8038 13.4616C31.9329 13.4616 32.8483 12.5539 32.8483 11.4342V10.5653H34.6007C34.9233 10.5653 35.1848 10.3059 35.1848 9.98603V6.51049C35.1848 6.1906 34.9233 5.93123 34.6007 5.93123ZM2.4728 9.40677H1.30452V7.08975H2.4728V9.40677ZM5.39352 11.4342C5.39352 11.914 5.0012 12.3031 4.51731 12.3031C4.03342 12.3031 3.64109 11.914 3.64109 11.4342V5.06235C3.64109 4.58251 4.03342 4.19347 4.51731 4.19347C5.0012 4.19347 5.39352 4.58251 5.39352 5.06235V11.4342ZM8.89838 14.0408C8.89838 14.6807 8.37536 15.1993 7.7301 15.1993C7.08484 15.1993 6.56181 14.6807 6.56181 14.0408V2.4557C6.56181 1.81584 7.08484 1.29718 7.7301 1.29718C8.37536 1.29718 8.89838 1.81584 8.89838 2.4557V14.0408ZM11.8191 7.669C11.4965 7.669 11.235 7.92837 11.235 8.24826V9.40677H10.0667V7.08975H12.4032C12.4039 7.19923 12.415 7.30849 12.4365 7.41587C12.443 7.45004 12.4541 7.48132 12.4622 7.51434C12.4757 7.5659 12.4856 7.61919 12.5031 7.669H11.8191ZM14.7398 7.08975C14.7398 7.40964 14.4783 7.669 14.1557 7.669C13.8331 7.669 13.5715 7.40964 13.5715 7.08975V5.35198C13.5715 5.03208 13.8331 4.77272 14.1557 4.77272C14.4783 4.77272 14.7398 5.03208 14.7398 5.35198V7.08975ZM17.0764 7.08975C17.0764 7.40964 16.8148 7.669 16.4922 7.669C16.1697 7.669 15.9081 7.40964 15.9081 7.08975V5.35198C15.9081 5.03208 16.1697 4.77272 16.4922 4.77272C16.8148 4.77272 17.0764 5.03208 17.0764 5.35198V7.08975ZM20.5813 5.35198C20.5813 5.03208 20.8428 4.77272 21.1654 4.77272C21.488 4.77272 21.7495 5.03208 21.7495 5.35198V7.08975C21.7495 7.40964 21.488 7.669 21.1654 7.669C20.8428 7.669 20.5813 7.40964 20.5813 7.08975V5.35198ZM18.2447 5.35198C18.2447 5.03208 18.5062 4.77272 18.8288 4.77272C19.1514 4.77272 19.413 5.03208 19.413 5.35198V7.08975C19.413 7.40964 19.1514 7.669 18.8288 7.669C18.5062 7.669 18.2447 7.40964 18.2447 7.08975V5.35198ZM25.2544 9.40677H17.6605C17.6605 9.40098 17.6605 9.39635 17.6605 9.39055C17.66 9.27535 17.6479 9.16044 17.6243 9.04763C17.6208 9.03199 17.6132 9.01751 17.6097 9.00129C17.5992 8.95901 17.584 8.91962 17.5706 8.87849C17.5459 8.80427 17.516 8.73194 17.4812 8.66185C17.4643 8.62709 17.4561 8.5877 17.4368 8.55411C17.4435 8.54962 17.4499 8.54477 17.4561 8.53963C17.483 8.52225 17.5063 8.5014 17.532 8.4817C17.5758 8.44926 17.622 8.41914 17.6629 8.38265C17.6968 8.41277 17.7359 8.43652 17.7721 8.46374C17.8083 8.49097 17.844 8.52167 17.8831 8.546C17.9382 8.57974 17.9952 8.61051 18.0537 8.6381C18.0934 8.65722 18.1308 8.67981 18.1705 8.69603C18.2387 8.72195 18.3086 8.74345 18.3796 8.76032C18.4164 8.77017 18.4509 8.78407 18.4889 8.7916C18.7135 8.83715 18.9452 8.83715 19.17 8.7916C19.2079 8.78407 19.2424 8.77017 19.2792 8.76032C19.3502 8.74345 19.4201 8.72195 19.4883 8.69603C19.5298 8.67923 19.5672 8.65664 19.6052 8.6381C19.6639 8.61051 19.721 8.57974 19.7763 8.546C19.8149 8.52051 19.8499 8.49155 19.8867 8.46374C19.9235 8.43594 19.9621 8.41277 19.9959 8.38265C20.0298 8.41277 20.069 8.43652 20.1052 8.46374C20.1414 8.49097 20.177 8.52167 20.2162 8.546C20.2713 8.57974 20.3282 8.61051 20.3867 8.6381C20.4265 8.65722 20.4638 8.67981 20.5036 8.69603C20.5718 8.72195 20.6416 8.74345 20.7127 8.76032C20.7495 8.77017 20.784 8.78407 20.8219 8.7916C21.7679 8.98225 22.6905 8.37642 22.8828 7.43846C22.9063 7.32369 22.918 7.2069 22.9178 7.08975H25.2544V9.40677ZM28.7593 14.0408C28.7593 14.6807 28.2362 15.1993 27.591 15.1993C26.9457 15.1993 26.4227 14.6807 26.4227 14.0408V2.4557C26.4227 1.81584 26.9457 1.29718 27.591 1.29718C28.2362 1.29718 28.7593 1.81584 28.7593 2.4557V14.0408ZM31.68 11.4342C31.68 11.914 31.2877 12.3031 30.8038 12.3031C30.3199 12.3031 29.9276 11.914 29.9276 11.4342V5.06235C29.9276 4.58251 30.3199 4.19347 30.8038 4.19347C31.2877 4.19347 31.68 4.58251 31.68 5.06235V11.4342ZM34.0166 9.40677H32.8483V7.08975H34.0166V9.40677Z" fill="white"/>
</svg>
