<svg width="41" height="41" viewBox="0 0 41 41" fill="none" xmlns="http://www.w3.org/2000/svg">
<path d="M23.3977 19.9797L19.6477 17.4797C19.5535 17.4169 19.4441 17.3808 19.331 17.3753C19.218 17.3699 19.1056 17.3952 19.0058 17.4486C18.906 17.502 18.8226 17.5815 18.7645 17.6786C18.7064 17.7758 18.6757 17.8868 18.6758 18V23C18.6757 23.1132 18.7064 23.2243 18.7645 23.3214C18.8226 23.4185 18.906 23.498 19.0058 23.5514C19.1056 23.6048 19.218 23.6302 19.331 23.6247C19.4441 23.6192 19.5535 23.5831 19.6477 23.5203L23.3977 21.0203C23.4834 20.9633 23.5537 20.8859 23.6023 20.7951C23.6509 20.7044 23.6764 20.603 23.6764 20.5C23.6764 20.397 23.6509 20.2956 23.6023 20.2049C23.5537 20.1141 23.4834 20.0367 23.3977 19.9797ZM19.9258 21.832V19.1719L21.9242 20.5L19.9258 21.832ZM28.8578 15.9313C28.7842 15.6432 28.6432 15.3769 28.4463 15.1541C28.2495 14.9313 28.0025 14.7585 27.7258 14.65C25.0477 13.6156 20.7852 13.625 20.5508 13.625C20.3164 13.625 16.0539 13.6156 13.3758 14.65C13.099 14.7585 12.8521 14.9313 12.6552 15.1541C12.4584 15.3769 12.3174 15.6432 12.2438 15.9313C12.0414 16.7109 11.8008 18.1359 11.8008 20.5C11.8008 22.8641 12.0414 24.2891 12.2438 25.0688C12.3173 25.3569 12.4582 25.6234 12.6551 25.8464C12.8519 26.0693 13.0989 26.2422 13.3758 26.3508C15.9414 27.3406 19.957 27.375 20.4992 27.375H20.6023C21.1445 27.375 25.1625 27.3406 27.7258 26.3508C28.0026 26.2422 28.2497 26.0693 28.4465 25.8464C28.6433 25.6234 28.7843 25.3569 28.8578 25.0688C29.0602 24.2875 29.3008 22.8641 29.3008 20.5C29.3008 18.1359 29.0602 16.7109 28.8578 15.9313ZM27.6477 24.7594C27.6238 24.8552 27.5777 24.9441 27.5129 25.0186C27.4481 25.0932 27.3666 25.1513 27.275 25.1883C24.8023 26.143 20.5969 26.1258 20.5563 26.1258H20.5508C20.5086 26.1258 16.3063 26.1414 13.832 25.1883C13.7404 25.1513 13.6589 25.0932 13.5941 25.0186C13.5294 24.9441 13.4832 24.8552 13.4594 24.7594C13.2695 24.0461 13.0508 22.732 13.0508 20.5C13.0508 18.268 13.2695 16.9539 13.4539 16.2445C13.4773 16.1481 13.5233 16.0586 13.5881 15.9835C13.6529 15.9084 13.7346 15.8498 13.8266 15.8125C16.2109 14.8914 20.2063 14.875 20.5336 14.875H20.5547C20.5969 14.875 24.8031 14.8609 27.2734 15.8125C27.365 15.8495 27.4465 15.9076 27.5113 15.9822C27.5761 16.0567 27.6223 16.1456 27.6461 16.2414C27.832 16.9539 28.0508 18.268 28.0508 20.5C28.0508 22.732 27.832 24.0461 27.6477 24.7555V24.7594Z" fill="white"/>
<circle cx="20.5508" cy="20.5" r="19.5" stroke="white"/>
<circle cx="20.5508" cy="20.5" r="19.5" stroke="white"/>
<circle cx="20.5508" cy="20.5" r="19.5" stroke="white"/>
</svg>
