<svg width="128" height="54" viewBox="0 0 128 54" fill="none" xmlns="http://www.w3.org/2000/svg">
<path d="M57.6002 5.93075H55.8478V5.06186C55.8478 3.94216 54.9324 3.03447 53.8033 3.03447C53.4995 3.03613 53.2001 3.10564 52.9271 3.23778V2.45521C52.9271 1.17556 51.8809 0.138184 50.5905 0.138184C49.3 0.138184 48.2539 1.17556 48.2539 2.45521V5.93075H45.9173V5.35149C45.9216 4.39593 45.1439 3.61785 44.1802 3.61358C43.7425 3.61162 43.32 3.77294 42.9966 4.06554C42.3362 3.46311 41.3204 3.46311 40.66 4.06554C39.9997 3.46311 38.9838 3.46311 38.3235 4.06554C37.6115 3.42155 36.508 3.4718 35.8585 4.17777C35.5635 4.49846 35.4009 4.91741 35.4028 5.35149V5.93075H33.0662V2.45521C33.0662 1.17556 32.0201 0.138184 30.7296 0.138184C29.4392 0.138184 28.393 1.17556 28.393 2.45521V3.23778C28.12 3.10564 27.8206 3.03613 27.5168 3.03447C26.3877 3.03447 25.4723 3.94216 25.4723 5.06186V5.93075H23.7199C23.3973 5.93075 23.1357 6.19011 23.1357 6.51V9.98554C23.1357 10.3054 23.3973 10.5648 23.7199 10.5648H25.4723V11.4337C25.4723 12.5534 26.3877 13.4611 27.5168 13.4611C27.8206 13.4594 28.12 13.3899 28.393 13.2578V14.0403C28.393 15.32 29.4392 16.3574 30.7296 16.3574C32.0201 16.3574 33.0662 15.32 33.0662 14.0403V10.5648H34.2345V12.5013C34.2326 13.2697 34.5407 14.007 35.0902 14.5489L36.571 16.0179L36.2047 25.281H39.1749L37.7393 15.7781C37.7393 15.6245 37.6777 15.4772 37.5682 15.3686L35.9162 13.7299C35.5884 13.4034 35.4039 12.9619 35.4028 12.5013V8.82703H38.8241C39.0453 8.82406 39.2548 8.92478 39.3895 9.0987C39.3936 9.10449 39.3983 9.11028 39.4024 9.11666C39.4274 9.15619 39.4471 9.19884 39.4608 9.24351C39.4718 9.27921 39.4793 9.31585 39.483 9.35299C39.4871 9.38934 39.4871 9.42612 39.483 9.46247C39.4817 9.48195 39.4791 9.50128 39.4754 9.5204C39.4622 9.58144 39.4395 9.64001 39.4082 9.69417C39.3064 9.87353 39.1152 9.98474 38.9076 9.98554H37.1552C36.8326 9.98554 36.571 10.2449 36.571 10.5648V11.7233C36.571 11.9728 36.732 12.1942 36.9706 12.273L38.2557 12.6988C39.299 13.0423 40.0759 14.608 40.0759 15.7781H41.2442C41.2442 14.1846 40.2441 12.1334 38.6278 11.5993L37.7393 11.3057V11.1441H38.9076C39.3992 11.1393 39.866 10.929 40.1927 10.5648H45.3332V12.6889C45.3325 13.0648 45.2096 13.4304 44.9827 13.7316L43.6976 15.4306C43.6217 15.5308 43.5808 15.6528 43.5808 15.7781L42.6047 25.281H45.3332L44.7491 15.971L45.9173 14.4267C46.2954 13.9248 46.5003 13.3154 46.5015 12.6889V10.5648H48.2539V14.0403C48.2539 15.32 49.3 16.3574 50.5905 16.3574C51.8809 16.3574 52.9271 15.32 52.9271 14.0403V13.2578C53.2001 13.3899 53.4995 13.4594 53.8033 13.4611C54.9324 13.4611 55.8478 12.5534 55.8478 11.4337V10.5648H57.6002C57.9228 10.5648 58.1844 10.3054 58.1844 9.98554V6.51C58.1844 6.19011 57.9228 5.93075 57.6002 5.93075ZM25.4723 9.40628H24.304V7.08926H25.4723V9.40628ZM28.393 11.4337C28.393 11.9135 28.0007 12.3026 27.5168 12.3026C27.0329 12.3026 26.6406 11.9135 26.6406 11.4337V5.06186C26.6406 4.58202 27.0329 4.19298 27.5168 4.19298C28.0007 4.19298 28.393 4.58202 28.393 5.06186V11.4337ZM31.8979 14.0403C31.8979 14.6802 31.3749 15.1988 30.7296 15.1988C30.0843 15.1988 29.5613 14.6802 29.5613 14.0403V2.45521C29.5613 1.81535 30.0843 1.2967 30.7296 1.2967C31.3749 1.2967 31.8979 1.81535 31.8979 2.45521V14.0403ZM34.8186 7.66852C34.496 7.66852 34.2345 7.92788 34.2345 8.24777V9.40628H33.0662V7.08926H35.4028C35.4034 7.19874 35.4145 7.308 35.4361 7.41538C35.4425 7.44956 35.4536 7.48084 35.4618 7.51385C35.4752 7.56541 35.4851 7.6187 35.5026 7.66852H34.8186ZM37.7393 7.08926C37.7393 7.40915 37.4778 7.66852 37.1552 7.66852C36.8326 7.66852 36.571 7.40915 36.571 7.08926V5.35149C36.571 5.0316 36.8326 4.77223 37.1552 4.77223C37.4778 4.77223 37.7393 5.0316 37.7393 5.35149V7.08926ZM40.0759 7.08926C40.0759 7.40915 39.8144 7.66852 39.4918 7.66852C39.1692 7.66852 38.9076 7.40915 38.9076 7.08926V5.35149C38.9076 5.0316 39.1692 4.77223 39.4918 4.77223C39.8144 4.77223 40.0759 5.0316 40.0759 5.35149V7.08926ZM43.5808 5.35149C43.5808 5.0316 43.8423 4.77223 44.1649 4.77223C44.4875 4.77223 44.7491 5.0316 44.7491 5.35149V7.08926C44.7491 7.40915 44.4875 7.66852 44.1649 7.66852C43.8423 7.66852 43.5808 7.40915 43.5808 7.08926V5.35149ZM41.2442 5.35149C41.2442 5.0316 41.5057 4.77223 41.8283 4.77223C42.1509 4.77223 42.4125 5.0316 42.4125 5.35149V7.08926C42.4125 7.40915 42.1509 7.66852 41.8283 7.66852C41.5057 7.66852 41.2442 7.40915 41.2442 7.08926V5.35149ZM48.2539 9.40628H40.66C40.66 9.40049 40.66 9.39586 40.66 9.39007C40.6595 9.27487 40.6474 9.15996 40.6238 9.04714C40.6203 9.0315 40.6127 9.01702 40.6092 9.0008C40.5987 8.95852 40.5835 8.91913 40.5701 8.878C40.5454 8.80379 40.5155 8.73145 40.4807 8.66136C40.4638 8.62661 40.4556 8.58722 40.4363 8.55362C40.443 8.54913 40.4494 8.54428 40.4556 8.53914C40.4825 8.52176 40.5058 8.50091 40.5315 8.48121C40.5753 8.44877 40.6215 8.41865 40.6624 8.38216C40.6963 8.41228 40.7354 8.43603 40.7716 8.46325C40.8078 8.49048 40.8435 8.52118 40.8826 8.54551C40.9377 8.57925 40.9947 8.61002 41.0532 8.63761C41.0929 8.65673 41.1303 8.67932 41.17 8.69554C41.2382 8.72146 41.3081 8.74296 41.3791 8.75983C41.4159 8.76968 41.4504 8.78358 41.4884 8.79111C41.713 8.83666 41.9447 8.83666 42.1695 8.79111C42.2074 8.78358 42.2419 8.76968 42.2787 8.75983C42.3498 8.74296 42.4196 8.72146 42.4878 8.69554C42.5293 8.67874 42.5667 8.65615 42.6047 8.63761C42.6634 8.61002 42.7205 8.57925 42.7758 8.54551C42.8144 8.52002 42.8494 8.49106 42.8862 8.46325C42.923 8.43545 42.9616 8.41228 42.9955 8.38216C43.0293 8.41228 43.0685 8.43603 43.1047 8.46325C43.1409 8.49048 43.1765 8.52118 43.2157 8.54551C43.2708 8.57925 43.3278 8.61002 43.3862 8.63761C43.426 8.65673 43.4634 8.67932 43.5031 8.69554C43.5713 8.72146 43.6412 8.74296 43.7122 8.75983C43.749 8.76968 43.7835 8.78358 43.8214 8.79111C44.7674 8.98176 45.69 8.37593 45.8823 7.43797C45.9058 7.32321 45.9176 7.20641 45.9173 7.08926H48.2539V9.40628ZM51.7588 14.0403C51.7588 14.6802 51.2357 15.1988 50.5905 15.1988C49.9452 15.1988 49.4222 14.6802 49.4222 14.0403V2.45521C49.4222 1.81535 49.9452 1.2967 50.5905 1.2967C51.2357 1.2967 51.7588 1.81535 51.7588 2.45521V14.0403ZM54.6795 11.4337C54.6795 11.9135 54.2872 12.3026 53.8033 12.3026C53.3194 12.3026 52.9271 11.9135 52.9271 11.4337V5.06186C52.9271 4.58202 53.3194 4.19298 53.8033 4.19298C54.2872 4.19298 54.6795 4.58202 54.6795 5.06186V11.4337ZM57.0161 9.40628H55.8478V7.08926H57.0161V9.40628Z" fill="white"/>
<path d="M1.04 24.1302H4.24V35.1382H1.04V24.1302ZM4.912 24.1302H8.656V26.5782H4.912V24.1302ZM4.912 28.6742H8.064V31.1222H4.912V28.6742ZM10.2588 24.1302H13.4588V35.1382H10.2588V24.1302ZM14.644 24.1302H23.652V26.6902H14.644V24.1302ZM17.54 27.3302H20.74V35.1382H17.54V27.3302Z" fill="#F5F5F5"/>
<path d="M24.8369 24.1302H28.0369V35.1382H24.8369V24.1302ZM31.0129 30.8982H28.7089V28.3382H31.0129V24.1302H34.2129V35.1382H31.0129V30.8982ZM40.77 35.2662C39.65 35.2662 38.786 35.1755 38.178 34.9942C37.57 34.8129 37.122 34.5195 36.834 34.1142C36.5673 33.7409 36.402 33.2662 36.338 32.6902C36.274 32.1142 36.242 31.2555 36.242 30.1142V24.1302H39.442V30.7542C39.442 31.1488 39.4527 31.5275 39.474 31.8902C39.4953 32.1782 39.5433 32.3862 39.618 32.5142C39.6927 32.6422 39.8207 32.7222 40.002 32.7542C40.162 32.7969 40.418 32.8182 40.77 32.8182H41.138C41.2233 32.8182 41.3193 32.8075 41.426 32.7862V35.2502C41.3513 35.2609 41.2447 35.2662 41.106 35.2662H40.77ZM42.098 24.1302H45.298V30.1142C45.298 31.1595 45.2767 31.9489 45.234 32.4822C45.1913 33.0155 45.074 33.4635 44.882 33.8262C44.6687 34.2422 44.3433 34.5622 43.906 34.7862C43.4687 35.0102 42.866 35.1542 42.098 35.2182V24.1302ZM47.3369 24.1302H50.5369V35.1382H47.3369V24.1302ZM51.2089 32.6902H51.8649C52.1635 32.6902 52.3875 32.6849 52.5369 32.6742C52.6969 32.6529 52.8142 32.6102 52.8889 32.5462C52.9635 32.4822 53.0115 32.3915 53.0329 32.2742C53.0649 32.1569 53.0809 31.9862 53.0809 31.7622C53.0809 31.5275 53.0649 31.3515 53.0329 31.2342C53.0115 31.1168 52.9635 31.0262 52.8889 30.9622C52.7609 30.8555 52.4195 30.8022 51.8649 30.8022H51.2089V28.3542H51.7689C52.0675 28.3542 52.2915 28.3488 52.4409 28.3382C52.6009 28.3169 52.7182 28.2742 52.7929 28.2102C52.8675 28.1462 52.9155 28.0608 52.9369 27.9542C52.9689 27.8369 52.9849 27.6769 52.9849 27.4742C52.9849 27.2608 52.9689 27.1009 52.9369 26.9942C52.9155 26.8768 52.8675 26.7862 52.7929 26.7222C52.7182 26.6582 52.6009 26.6208 52.4409 26.6102C52.2915 26.5888 52.0675 26.5782 51.7689 26.5782H51.2089V24.1302H53.0329C55.1769 24.1302 56.2489 25.0528 56.2489 26.8982C56.2489 27.6768 56.0942 28.2635 55.7849 28.6582C55.4862 29.0528 55.0062 29.3302 54.3449 29.4902V29.5542C55.0382 29.7142 55.5342 29.9648 55.8329 30.3062C56.1742 30.7115 56.3449 31.3409 56.3449 32.1942C56.3449 33.1755 56.0835 33.9115 55.5609 34.4022C55.0382 34.8929 54.2009 35.1382 53.0489 35.1382H51.2089V32.6902Z" fill="#DC0000"/>
</svg>
